<?xml version="1.0" encoding="UTF-8"?><svg id="uuid-e87f0b8f-b1f9-4b02-ad4a-d4ed60319a18" xmlns="http://www.w3.org/2000/svg" width="1800" height="420" viewBox="0 0 1800 420"><path d="m1375.1,303.79v20.61c2.39-2.5,5.38-3.75,8.96-3.75,2.13,0,4.08.4,5.85,1.2,1.77.8,3.29,1.89,4.54,3.25,1.25,1.36,2.23,2.97,2.94,4.82.71,1.85,1.06,3.82,1.06,5.91s-.36,4.13-1.09,5.99c-.73,1.87-1.75,3.49-3.05,4.87-1.31,1.38-2.85,2.47-4.62,3.28-1.77.8-3.69,1.2-5.74,1.2-3.73,0-6.68-1.36-8.85-4.09v3.19h-10.14v-46.48h10.14Zm12.77,32.2c0-.9-.17-1.74-.5-2.55-.34-.8-.8-1.5-1.4-2.1-.6-.6-1.29-1.07-2.07-1.43-.78-.35-1.64-.53-2.58-.53s-1.74.17-2.52.5-1.47.8-2.04,1.4c-.58.6-1.04,1.3-1.4,2.1-.36.8-.53,1.65-.53,2.55s.17,1.74.5,2.52c.34.78.8,1.47,1.4,2.04.6.58,1.3,1.05,2.1,1.4.8.36,1.65.53,2.55.53s1.74-.17,2.52-.5c.78-.34,1.46-.8,2.04-1.4.58-.6,1.04-1.29,1.4-2.07.35-.78.53-1.6.53-2.46Z" style="stroke-width:0px;"/><path d="m1432.11,346.35l-13.89-24.81h11.76l7.67,14.73,7.45-14.73h11.65l-23.07,43.06h-11.37l9.8-18.26Z" style="stroke-width:0px;"/><path d="m1514.47,350.27l7.17-42.22h10.86l8.46,22.51,8.4-22.51h10.86l7.17,42.22h-10.92l-3.64-24.3-9.97,24.3h-4.37l-9.46-24.3-3.64,24.3h-10.92Z" style="stroke-width:0px;"/><path d="m1611.28,308.04v32.93h13.16v9.3h-24.14v-42.22h10.98Z" style="stroke-width:0px;"/><path d="m1666.82,308.04v42.22h-10.98v-42.22h10.98Z" style="stroke-width:0px;"/><path d="m1717.83,317.34v32.93h-10.98v-32.93h-9.02v-9.3h29.01v9.3h-9.02Z" style="stroke-width:0px;"/><path d="m513.54,202.52v48.37h-17.98v-119.12h20.37c9.98,0,17.51.69,22.6,2.08,5.14,1.39,9.67,4.01,13.58,7.87,6.84,6.69,10.26,15.12,10.26,25.3,0,10.9-3.65,19.54-10.96,25.92-7.3,6.38-17.15,9.57-29.55,9.57h-8.33Zm0-16.66h6.71c16.51,0,24.76-6.35,24.76-19.06s-8.51-18.44-25.54-18.44h-5.94v37.49Z" style="stroke-width:0px;"/><path d="m702.07,131.77v102.22h35.03v16.9h-53v-119.12h17.98Z" style="stroke-width:0px;"/><path d="m935.64,221.96h-51l-13.27,28.93h-19.36l58.94-126.6,56.86,126.6h-19.67l-12.5-28.93Zm-7.33-16.9l-17.67-40.5-18.52,40.5h36.18Z" style="stroke-width:0px;"/><path d="m1112.54,148.67v102.22h-17.98v-102.22h-27.39v-16.9h72.67v16.9h-27.31Z" style="stroke-width:0px;"/><path d="m1328.86,148.67h-47.75v28.62h46.37v16.9h-46.37v39.81h47.75v16.9h-65.73v-119.12h65.73v16.9Z" style="stroke-width:0px;"/><path d="m1514.59,221.96h-51l-13.27,28.93h-19.36l58.94-126.6,56.86,126.6h-19.67l-12.5-28.93Zm-7.33-16.9l-17.67-40.5-18.52,40.5h36.18Z" style="stroke-width:0px;"/><path d="m1658.85,131.77v71.75c0,10.24,1.67,17.72,5.01,22.45,4.99,6.84,12.01,10.26,21.06,10.26s16.15-3.42,21.14-10.26c3.34-4.58,5.01-12.06,5.01-22.45v-71.75h17.98v76.69c0,12.55-3.91,22.89-11.73,31.01-8.79,9.05-19.6,13.58-32.4,13.58s-23.58-4.53-32.33-13.58c-7.82-8.13-11.73-18.46-11.73-31.01v-76.69h17.98Z" style="stroke-width:0px;"/><path d="m195.49,174.36l-28.02-16.18-95.4-55.08v142.51l254.4,146.88v-142.51l-50.88-29.38-14.61-8.44-36.27-20.94-29.22-16.87Z" style="fill:#463c64; stroke-width:0px;"/><path d="m195.49,27.5l-119.64,69.07,89.73,51.8,29.91,17.27V27.5Z" style="fill:#00bebe; stroke-width:0px;"/><path d="m260.99,203.46v-71.26l61.71-35.63L203.06,27.5v142.51l23.17,13.38,34.76,20.07Z" style="fill:#00bebe; stroke-width:0px;"/><path d="m326.47,241.26V103.11l-57.93,33.44v71.26l11.59,6.69,46.34,26.76Z" style="fill:#463c64; stroke-width:0px;"/></svg>